<?xml version="1.0" encoding="UTF-8" standalone="no"?><!DOCTYPE svg PUBLIC "-//W3C//DTD SVG 1.1//EN" "http://www.w3.org/Graphics/SVG/1.1/DTD/svg11.dtd"><svg width="100%" height="100%" viewBox="0 0 285 285" version="1.1" xmlns="http://www.w3.org/2000/svg" xmlns:xlink="http://www.w3.org/1999/xlink" xml:space="preserve" xmlns:serif="http://www.serif.com/" style="fill-rule:evenodd;clip-rule:evenodd;stroke-linejoin:bevel;stroke-miterlimit:1.5;"><g><clipPath id="_clip1"><rect x="0.009" y="0.676" width="285.002" height="285"/></clipPath><g clip-path="url(#_clip1)"><g id="text"><g transform="matrix(1.06256,0,0,1.0624,-494.984,-357.34)"><g transform="matrix(55.3568,0,0,55.3568,501.325,388.148)"><path d="M0.131,-0.366l0.243,0c0.026,0 0.049,-0.006 0.069,-0.017c0.02,-0.012 0.036,-0.028 0.047,-0.049c0.01,-0.021 0.016,-0.046 0.016,-0.073c0,-0.028 -0.005,-0.052 -0.016,-0.074c-0.011,-0.021 -0.026,-0.037 -0.046,-0.049c-0.02,-0.011 -0.044,-0.017 -0.07,-0.017l-0.243,0l0,-0.065l0.239,0c0.041,0 0.077,0.008 0.108,0.025c0.031,0.017 0.055,0.041 0.072,0.072c0.017,0.031 0.026,0.067 0.026,0.108c0,0.04 -0.009,0.076 -0.026,0.107c-0.017,0.031 -0.041,0.055 -0.072,0.072c-0.032,0.017 -0.068,0.026 -0.108,0.026l-0.239,0l0,-0.066Zm-0.043,-0.344l0.07,0l0,0.71l-0.07,0l0,-0.71Zm0.271,0.388l0.065,-0.023l0.181,0.345l-0.084,0l-0.162,-0.322Z" style="fill:#ff0081;fill-opacity:0.87;fill-rule:nonzero;"/></g><g transform="matrix(55.3568,0,0,55.3568,501.325,443.505)"><path d="M0.015,-0.71l0.074,0l0.204,0.61l0.205,-0.61l0.074,0l-0.246,0.71l-0.065,0l-0.246,-0.71Z" style="fill:#ff0081;fill-opacity:0.87;fill-rule:nonzero;"/></g><g transform="matrix(55.3568,0,0,55.3568,501.325,498.862)"><path d="M0.155,-0.065l0.161,0c0.066,0 0.115,-0.016 0.148,-0.047c0.032,-0.03 0.049,-0.077 0.049,-0.138l0,-0.209c0,-0.062 -0.017,-0.109 -0.049,-0.139c-0.033,-0.031 -0.082,-0.047 -0.148,-0.047l-0.161,0l0,-0.065l0.158,0c0.06,0 0.11,0.009 0.15,0.028c0.04,0.019 0.07,0.047 0.09,0.085c0.02,0.038 0.03,0.085 0.03,0.141l0,0.202c0,0.056 -0.01,0.103 -0.03,0.141c-0.02,0.038 -0.05,0.066 -0.09,0.085c-0.04,0.019 -0.09,0.028 -0.151,0.028l-0.157,0l0,-0.065Zm-0.067,-0.645l0.07,0l0,0.71l-0.07,0l0,-0.71Z" style="fill:#ff0081;fill-opacity:0.87;fill-rule:nonzero;"/></g><g transform="matrix(55.3568,0,0,55.3568,501.325,554.218)"><path d="M0.281,-0.71l0.085,0l0.262,0.71l-0.078,0l-0.226,-0.636l-0.226,0.636l-0.078,0l0.261,-0.71Zm-0.141,0.472l0.374,0l0,0.066l-0.374,0l0,-0.066Z" style="fill:#ff0081;fill-opacity:0.87;fill-rule:nonzero;"/></g></g></g><g id="face"><g id="face1" serif:id="face"><path d="M105.878,187.064c0,1.259 1.067,2.122 1.44,3.24c0.67,2.009 2.572,7.984 0.18,9.18c-3.94,1.969 -10.162,0.999 -13.682,-2.52c-0.723,-0.724 -0.675,-1.711 -1.08,-2.52c-0.393,-0.786 -0.9,-0.887 -0.9,-1.8" style="fill:none;stroke:#000;stroke-width:0.77px;"/><path d="M106.958,202.544c1.235,0 2.285,0.413 3.42,0.9c1.119,0.479 3.365,1.147 3.961,2.34c0.751,1.501 0,4.29 0,5.94c0,0.667 -0.409,4.925 -0.18,5.039c8.149,4.074 14.945,7.526 23.584,10.98c3.506,1.403 7.038,3.748 10.801,4.5c2.56,0.512 5.009,2.63 7.381,3.42c1.72,0.574 3.541,1.335 5.401,1.8c0.654,0.164 1.758,0.069 2.34,0.36c1.992,0.996 4.902,0.651 6.841,1.62c4.602,2.301 9.575,0.966 14.583,1.8c4.275,0.713 11.079,0.623 13.682,-1.98c0.427,-0.427 1.487,-0.407 1.98,-0.9c1.598,-1.597 2.16,-4.097 2.16,-7.2" style="fill:none;stroke:#000;stroke-width:0.77px;"/><path d="M209.033,201.914c-2.588,0 -5.385,1.882 -7.381,2.88c-0.982,0.491 -2.368,0.283 -3.24,0.72c-2.077,1.038 -5.169,1.602 -7.382,2.34c-3.631,1.21 -6.772,-0.249 -9.181,2.16c-0.54,0.54 2.033,0.233 2.16,0.36c0.989,0.988 3.206,0.972 4.501,1.62c1.734,0.866 4.411,0.54 6.661,0.54c2.049,0 4.192,0.18 6.301,0.18c0.316,0 1.78,0.2 1.98,0c1.16,-1.16 2.026,-1.531 2.881,-3.24c0.216,-0.432 -0.154,-1.158 0,-1.62c0.08,-0.242 0.581,-1.04 0.36,-1.26c-0.289,-0.289 -1.648,0.18 -1.98,0.18c-2.35,0 -4.513,0.868 -6.841,1.08c-1.355,0.123 -2.78,0 -4.141,0l-3.421,0c-0.553,0 -1.62,0.36 -1.62,0.36c0,0 1.084,-0.091 1.62,-0.18c1.384,-0.231 2.751,-0.9 4.141,-0.9c3.914,0 8.404,0.298 11.522,-1.26c0.631,-0.316 4.928,-1.733 3.6,-3.06c-0.121,-0.122 -1.532,-0.448 -1.62,-0.36c-0.201,0.2 0,1.664 0,1.98c0,1.463 0.27,4.139 -0.36,5.4c-0.671,1.342 -5.235,2.34 -6.481,2.34" style="fill:none;stroke:#000;stroke-width:0.77px;"/><path d="M203.272,231.613c0,-1.772 0.644,-3.475 1.08,-5.22c0.509,-2.035 -0.299,-4.8 0.541,-6.48c0.378,-0.757 1.383,-1.271 1.62,-1.98c0.158,-0.475 0.272,-0.992 0.54,-1.26c0.413,-0.413 0.179,-1.618 0.36,-2.159c0.505,-1.515 1.091,-3.082 1.8,-4.5c0.74,-1.479 0.36,-4.569 0.36,-6.3c0,-4.479 0.36,-9.615 0.36,-13.68" style="fill:none;stroke:#000;stroke-width:0.77px;"/><path d="M201.472,153.854c0,0.444 0.644,0.919 0.9,1.26c1.067,1.422 2.283,3.485 3.061,5.04c2.588,5.176 5.026,10.038 6.841,15.48c0.846,2.538 2.16,4.223 2.16,7.02c0,0.344 0.219,1.941 0,2.16c-1.232,1.231 -3.157,2.568 -4.861,3.42c-0.372,0.186 -1.728,1.332 -1.98,1.08c-1.258,-1.258 -2.907,-1.827 -3.961,-2.88c-0.133,-0.134 -1.271,0 -1.44,0c-1.822,0 -3.213,0.166 -4.681,0.9c-0.552,0.276 -1.62,0.9 -1.62,0.9l2.701,0c1.377,0 4.726,-0.495 5.58,0.36c0.179,0.178 1.864,-0.244 1.621,0c-3.238,3.237 -8.998,1.381 -12.602,0.18c-0.747,-0.249 -2.428,-0.268 -2.881,-0.72c-1.786,-1.786 -1.95,-4.53 -0.54,-5.94" style="fill:none;stroke:#000;stroke-width:0.77px;"/><path d="M131.982,152.504c3.658,0 7.521,0.167 10.801,1.26c2.2,0.733 5.81,0 8.101,0l18.363,0" style="fill:none;stroke:#000;stroke-width:0.77px;"/><path d="M173.028,152.144c0,0.398 -0.635,0.814 -0.9,1.08c-1.226,1.225 -2.395,2.214 -3.601,3.42c-1.183,1.183 -3.048,2.855 -3.78,4.32c-0.409,0.817 -0.18,2.278 -0.18,3.24c0,2.586 -0.032,5.696 1.08,7.92c1.311,2.622 4.621,4.654 7.201,5.76c1.009,0.432 1.798,1.349 2.7,1.8c0.736,0.367 2.212,0.398 3.061,0.54c1.914,0.319 3.72,1.155 5.761,0.9c3.851,-0.482 8.225,-2.734 10.801,-5.58c1.33,-1.47 1.402,-3.181 1.8,-5.04c0.745,-3.473 0.54,-6.407 0.54,-9.9c0,-1.783 0.243,-3.888 -0.18,-5.58c-0.51,-2.043 -1.925,-3.423 -3.6,-4.68c-1.489,-1.117 -2.938,-2.313 -4.681,-3.06c-4.144,-1.776 -9.703,0.171 -13.322,1.98c-1.591,0.795 -4.076,1.699 -5.761,1.98c-0.553,0.092 -2.16,0.616 -2.16,1.08" style="fill:none;stroke:#000;stroke-width:0.77px;"/><path d="M200.032,152.144c0,-0.377 1.053,-0.72 1.44,-0.72c1.649,0 3.508,-0.18 5.041,-0.18" style="fill:none;stroke:#000;stroke-width:0.77px;"/><path d="M205.073,149.264c3.406,-4.894 12.031,-5.045 17.462,-4.14c1.09,0.182 3.714,0.293 4.501,1.08c0.35,0.351 -0.072,2.379 0,2.88c0.335,2.348 0.209,4.925 -0.36,7.2c-0.664,2.655 -0.591,5.732 -1.44,8.28c-0.442,1.323 -1.417,2.27 -1.801,3.42c-0.418,1.254 -1.478,3.529 -2.7,4.14c-1.954,0.977 -5.342,1.44 -7.561,1.44" style="fill:none;stroke:#000;stroke-width:0.77px;"/><path d="M214.434,131.894c0,3.119 1.08,5.881 1.08,8.82" style="fill:none;stroke:#000;stroke-width:0.77px;"/><path d="M91.429,196.38c0,5.719 -1.938,14.946 -4.922,17.93c-1.105,1.105 -0.361,4.588 -1.055,5.976c-1.634,3.268 -1.779,9.865 -4.219,12.305c-0.981,0.98 -0.612,3.424 -1.407,4.219c-3.387,3.386 -5.952,7.367 -11.252,10.546c-7.401,4.441 -17.214,6.206 -24.964,8.789c-3.037,1.012 -5.456,3.298 -9.142,4.219c-8.927,2.231 -16.595,8.812 -26.02,11.953c-3.1,1.033 -8.439,6.389 -8.439,6.328" style="fill:none;stroke:#000;stroke-width:0.77px;"/><path d="M191.573,243.137c0,1.065 -0.677,6.003 0,6.68c0.791,0.791 3.823,0.723 4.923,1.055c6.576,1.982 12.979,5.074 19.866,6.451c8.563,1.712 16.338,6.824 24.437,10.424c8.393,3.729 18.768,6.394 26.372,10.195c3.72,1.86 7.843,3.083 11.251,4.219c2.46,0.819 5.903,3.515 8.087,3.515" style="fill:none;stroke:#000;stroke-width:0.77px;"/></g><g><path id="beany" d="M65.008,163.094c0,-4.16 -3.124,-8.821 -4.395,-12.635c-1.662,-4.984 -5.666,-21.649 -4.294,-38.023c1.108,-13.212 7.412,-26.988 8.14,-28.443c2.439,-4.878 10.492,-20.139 26.048,-28.033c15.314,-7.772 40.304,-8.041 41.494,-7.446c1.748,0.874 14.944,2.953 28.297,8.618c13.457,5.71 24.917,14.834 27.871,17.787c1.786,1.786 6.931,3.751 8.903,5.722c1.214,1.213 10.664,17.079 13.139,22.028c1.669,3.338 3.597,8.736 5.258,12.057c1.827,3.654 0.624,15.958 0.624,15.958c0,0 -2.418,-4.842 -5.451,-8.809c-2.735,-3.577 -6.071,-6.274 -6.816,-7.018c-1.287,-1.287 -19.435,0.914 -22.895,2.644c-3.131,1.565 -35.666,25.663 -48.005,31.832c-7.118,3.558 -35.227,32.978 -38.514,36.264c-2.941,2.94 -10.724,19.244 -10.724,19.244l-18.68,-41.747Z" style="fill:#fff;stroke:#000;stroke-width:0.77px;"/><path id="beany1" serif:id="beany" d="M65.008,163.094c0,-4.16 -0.765,0.765 0,0c6.552,-6.552 15.032,-22.723 17.435,-25.126c6.924,-6.923 11.305,-13.087 19.872,-17.37c7.048,-3.524 16.023,-13.016 23.199,-16.604c3.48,-1.74 9.19,-5.799 12.608,-8.078c10.027,-6.683 22.93,-11.372 28.929,-17.37c1.376,-1.376 18.234,-5.208 20.214,-5.208" style="fill:#fff;stroke:#000;stroke-width:0.77px;"/></g><path id="frame" d="M183.814,71.507l0.418,-70.831l-160.284,0l-1.254,244.459l50.101,-0.449" style="fill:none;stroke:#000;stroke-width:0.77px;"/></g></g></g></svg>